<svg width="24" height="24" viewBox="0 0 24 24" fill="none" xmlns="http://www.w3.org/2000/svg">
<path fill-rule="evenodd" clip-rule="evenodd" d="M3 4.92578C2.44772 4.92578 2 5.36078 2 5.89739V17.5568C2 18.0934 2.44772 18.5284 3 18.5284H21C21.5523 18.5284 22 18.0934 22 17.5568V5.89739C22 5.36078 21.5523 4.92578 21 4.92578H3ZM0 5.89739C0 4.28757 1.34315 2.98254 3 2.98254H21C22.6569 2.98254 24 4.28757 24 5.89739V17.5568C24 19.1666 22.6569 20.4716 21 20.4716H3C1.34315 20.4716 0 19.1666 0 17.5568V5.89739Z" fill="#3F8DCB"/>
<path fill-rule="evenodd" clip-rule="evenodd" d="M0 9.78387C0 9.24726 0.447715 8.81226 1 8.81226H23C23.5523 8.81226 24 9.24726 24 9.78387C24 10.3205 23.5523 10.7555 23 10.7555H1C0.447715 10.7555 0 10.3205 0 9.78387Z" fill="#3F8DCB"/>
</svg>
