<svg width="48" height="48" viewBox="0 0 48 48" fill="none" xmlns="http://www.w3.org/2000/svg">
<path fill-rule="evenodd" clip-rule="evenodd" d="M3.75736 7.75736C4.88258 6.63214 6.4087 6 8 6H22C23.1046 6 24 6.89543 24 8C24 9.10457 23.1046 10 22 10H8C7.46957 10 6.96086 10.2107 6.58579 10.5858C6.21071 10.9609 6 11.4696 6 12V40C6 40.5304 6.21071 41.0391 6.58579 41.4142C6.96086 41.7893 7.46957 42 8 42H36C36.5304 42 37.0391 41.7893 37.4142 41.4142C37.7893 41.0391 38 40.5304 38 40V26C38 24.8954 38.8954 24 40 24C41.1046 24 42 24.8954 42 26V40C42 41.5913 41.3679 43.1174 40.2426 44.2426C39.1174 45.3679 37.5913 46 36 46H8C6.4087 46 4.88258 45.3679 3.75736 44.2426C2.63214 43.1174 2 41.5913 2 40V12C2 10.4087 2.63214 8.88258 3.75736 7.75736Z" fill="#3F8DCB"/>
<path fill-rule="evenodd" clip-rule="evenodd" d="M40 5.75732C39.4052 5.75732 38.8348 5.9936 38.4142 6.41418L19.8059 25.0225L18.7487 29.2512L22.9775 28.194L41.5858 9.58575C42.0063 9.16517 42.2426 8.59475 42.2426 7.99996C42.2426 7.40518 42.0063 6.83476 41.5858 6.41418C41.1652 5.9936 40.5948 5.75732 40 5.75732ZM35.5858 3.58575C36.7565 2.41503 38.3443 1.75732 40 1.75732C41.6556 1.75732 43.2435 2.41503 44.4142 3.58575C45.5849 4.75647 46.2426 6.34431 46.2426 7.99996C46.2426 9.65562 45.5849 11.2435 44.4142 12.4142L25.4142 31.4142C25.1579 31.6705 24.8367 31.8523 24.4851 31.9403L16.4851 33.9403C15.8035 34.1106 15.0825 33.9109 14.5858 33.4142C14.089 32.9174 13.8893 32.1964 14.0597 31.5149L16.0597 23.5149C16.1476 23.1632 16.3295 22.8421 16.5858 22.5858L35.5858 3.58575Z" fill="#3F8DCB"/>
</svg>
