<svg width="48" height="48" viewBox="0 0 48 48" fill="none" xmlns="http://www.w3.org/2000/svg">
<path d="M36.887 45.913C36.4696 45.913 36.1044 45.8087 35.7391 45.6L24 37.9304L12.2609 45.6C11.5304 46.0695 10.5913 46.0174 9.91305 45.5478C9.23479 45.0261 8.92174 44.1391 9.13044 43.3043L12.8348 30.2608L1.77392 20.9217C1.14783 20.4 0.88696 19.513 1.14783 18.6782C1.4087 17.8434 2.13913 17.3217 2.97392 17.2174L16.1739 16.2782L22.1217 3.28691C22.4348 2.55648 23.1652 2.08691 24 2.08691C24.8348 2.08691 25.5652 2.55648 25.8783 3.28691L31.8261 16.2782L45.0261 17.2174C45.8609 17.2695 46.5913 17.8434 46.8522 18.6782C47.113 19.4608 46.8522 20.3478 46.2261 20.9217L35.2174 30.2087L38.9217 43.2521C39.1826 44.0869 38.8696 44.9739 38.1391 45.4956C37.7739 45.7565 37.3565 45.913 36.887 45.913ZM24 33.3913C24.4174 33.3913 24.7826 33.4956 25.1478 33.7043L33.3913 39.0782L30.8348 30.0521C30.6261 29.2695 30.887 28.4347 31.513 27.913L39.6 21.0782L30.313 20.3478C29.5304 20.2956 28.9044 19.826 28.5391 19.1478L24 9.18257L19.4609 19.1478C19.1478 19.826 18.4696 20.2956 17.687 20.3478L8.4 21.026L16.487 27.8608C17.113 28.3826 17.3739 29.2174 17.1652 30L14.6087 39.0782L22.8522 33.7565C23.2174 33.4956 23.5826 33.3913 24 33.3913Z" fill="#428ECC"/>
</svg>
